<mxfile host="Electron" modified="2023-07-14T18:02:55.225Z" agent="Mozilla/5.0 (Windows NT 10.0; Win64; x64) AppleWebKit/537.36 (KHTML, like Gecko) draw.io/21.2.1 Chrome/112.0.5615.87 Electron/24.1.2 Safari/537.36" etag="R9kTSUR9eUx-gWdmW8MP" version="21.2.1" type="device">
  <diagram name="Page-1" id="ILiJkFNfnGtEeHsCnBNc">
    <mxGraphModel dx="4280" dy="3306" grid="1" gridSize="10" guides="1" tooltips="1" connect="1" arrows="1" fold="1" page="1" pageScale="1" pageWidth="827" pageHeight="1169" math="0" shadow="0">
      <root>
        <mxCell id="0" />
        <mxCell id="1" parent="0" />
        <mxCell id="FtxeGz9yoECI1jrde65M-79" value="" style="shape=rect;html=1;verticalAlign=top;fontStyle=1;align=center;whiteSpace=wrap;" vertex="1" parent="1">
          <mxGeometry x="200" y="-330" width="1770" height="1870" as="geometry" />
        </mxCell>
        <mxCell id="FtxeGz9yoECI1jrde65M-1" value="" style="ellipse;whiteSpace=wrap;html=1;aspect=fixed;" vertex="1" parent="1">
          <mxGeometry x="50" y="490" width="70" height="70" as="geometry" />
        </mxCell>
        <mxCell id="FtxeGz9yoECI1jrde65M-2" value="" style="endArrow=none;html=1;rounded=0;" edge="1" parent="1">
          <mxGeometry width="50" height="50" relative="1" as="geometry">
            <mxPoint x="80" y="630" as="sourcePoint" />
            <mxPoint x="80" y="560" as="targetPoint" />
          </mxGeometry>
        </mxCell>
        <mxCell id="FtxeGz9yoECI1jrde65M-3" value="" style="endArrow=none;html=1;rounded=0;" edge="1" parent="1">
          <mxGeometry width="50" height="50" relative="1" as="geometry">
            <mxPoint x="30" y="680" as="sourcePoint" />
            <mxPoint x="80" y="630" as="targetPoint" />
          </mxGeometry>
        </mxCell>
        <mxCell id="FtxeGz9yoECI1jrde65M-4" value="" style="endArrow=none;html=1;rounded=0;" edge="1" parent="1">
          <mxGeometry width="50" height="50" relative="1" as="geometry">
            <mxPoint x="130" y="680" as="sourcePoint" />
            <mxPoint x="80" y="630" as="targetPoint" />
          </mxGeometry>
        </mxCell>
        <mxCell id="FtxeGz9yoECI1jrde65M-5" value="" style="endArrow=none;html=1;rounded=0;" edge="1" parent="1">
          <mxGeometry width="50" height="50" relative="1" as="geometry">
            <mxPoint x="40" y="600" as="sourcePoint" />
            <mxPoint x="120" y="600" as="targetPoint" />
          </mxGeometry>
        </mxCell>
        <mxCell id="FtxeGz9yoECI1jrde65M-7" value="&lt;font face=&quot;Times New Roman&quot; style=&quot;font-size: 40px;&quot;&gt;&lt;b&gt;User&lt;/b&gt;&lt;/font&gt;" style="text;html=1;strokeColor=none;fillColor=none;align=center;verticalAlign=middle;whiteSpace=wrap;rounded=0;" vertex="1" parent="1">
          <mxGeometry x="-10" y="690" width="180" height="80" as="geometry" />
        </mxCell>
        <mxCell id="FtxeGz9yoECI1jrde65M-8" value="&lt;font style=&quot;font-size: 50px;&quot;&gt;&lt;u&gt;&lt;b&gt;ChatGPT&lt;/b&gt;&lt;/u&gt;&lt;/font&gt;" style="text;html=1;strokeColor=none;fillColor=none;align=center;verticalAlign=middle;whiteSpace=wrap;rounded=0;" vertex="1" parent="1">
          <mxGeometry x="950" y="-300" width="300" height="80" as="geometry" />
        </mxCell>
        <mxCell id="FtxeGz9yoECI1jrde65M-10" value="&lt;font face=&quot;Times New Roman&quot; style=&quot;font-size: 40px;&quot;&gt;Login&lt;/font&gt;" style="ellipse;whiteSpace=wrap;html=1;" vertex="1" parent="1">
          <mxGeometry x="735" y="60" width="220" height="90" as="geometry" />
        </mxCell>
        <mxCell id="FtxeGz9yoECI1jrde65M-12" value="&lt;font style=&quot;font-size: 40px;&quot; face=&quot;Times New Roman&quot;&gt;Registration&lt;/font&gt;" style="ellipse;whiteSpace=wrap;html=1;rotation=-25;" vertex="1" parent="1">
          <mxGeometry x="1040" y="-20" width="220" height="80" as="geometry" />
        </mxCell>
        <mxCell id="FtxeGz9yoECI1jrde65M-14" value="&lt;font face=&quot;Times New Roman&quot; style=&quot;font-size: 40px;&quot;&gt;Via&lt;br&gt;Google&lt;/font&gt;" style="ellipse;whiteSpace=wrap;html=1;rotation=-20;" vertex="1" parent="1">
          <mxGeometry x="1378.34" y="-161.44" width="201.46" height="99.81" as="geometry" />
        </mxCell>
        <mxCell id="FtxeGz9yoECI1jrde65M-16" value="&lt;font face=&quot;Times New Roman&quot; style=&quot;font-size: 29px;&quot;&gt;Via&lt;br&gt;Microsoft account&lt;/font&gt;" style="ellipse;whiteSpace=wrap;html=1;rotation=-10;" vertex="1" parent="1">
          <mxGeometry x="1449.07" y="-60.67" width="210" height="109.81" as="geometry" />
        </mxCell>
        <mxCell id="FtxeGz9yoECI1jrde65M-18" value="&lt;font face=&quot;Times New Roman&quot; style=&quot;font-size: 28px;&quot;&gt;Via&lt;br&gt;Apple acount&lt;/font&gt;" style="ellipse;whiteSpace=wrap;html=1;rotation=-10;" vertex="1" parent="1">
          <mxGeometry x="1490" y="70" width="210" height="109.81" as="geometry" />
        </mxCell>
        <mxCell id="FtxeGz9yoECI1jrde65M-19" value="&lt;font face=&quot;Times New Roman&quot; style=&quot;font-size: 40px;&quot;&gt;Send&lt;br&gt;message&lt;br&gt;&lt;/font&gt;" style="ellipse;whiteSpace=wrap;html=1;" vertex="1" parent="1">
          <mxGeometry x="727.5" y="210" width="235" height="110" as="geometry" />
        </mxCell>
        <mxCell id="FtxeGz9yoECI1jrde65M-20" value="&lt;font face=&quot;Times New Roman&quot; style=&quot;font-size: 40px;&quot;&gt;Go to&amp;nbsp;&lt;br&gt;Menu bar&lt;br&gt;&lt;/font&gt;" style="ellipse;whiteSpace=wrap;html=1;" vertex="1" parent="1">
          <mxGeometry x="727.5" y="370" width="242.5" height="110" as="geometry" />
        </mxCell>
        <mxCell id="FtxeGz9yoECI1jrde65M-22" value="&lt;font face=&quot;Times New Roman&quot; style=&quot;font-size: 35px;&quot;&gt;Check&amp;nbsp;&lt;br&gt;History&lt;/font&gt;" style="ellipse;whiteSpace=wrap;html=1;rotation=-15;" vertex="1" parent="1">
          <mxGeometry x="1027.85" y="313.7" width="170" height="90" as="geometry" />
        </mxCell>
        <mxCell id="FtxeGz9yoECI1jrde65M-32" value="&lt;font style=&quot;font-size: 30px;&quot; face=&quot;Times New Roman&quot;&gt;Upgrade to&lt;br&gt;Plus&lt;/font&gt;" style="ellipse;whiteSpace=wrap;html=1;rotation=-10;" vertex="1" parent="1">
          <mxGeometry x="1097.88" y="405.81" width="170" height="100" as="geometry" />
        </mxCell>
        <mxCell id="FtxeGz9yoECI1jrde65M-34" value="&lt;font style=&quot;font-size: 30px;&quot; face=&quot;Times New Roman&quot;&gt;&lt;span style=&quot;font-size: 30px;&quot;&gt;Make&lt;br&gt;&lt;/span&gt;Payment&lt;/font&gt;" style="ellipse;whiteSpace=wrap;html=1;rotation=-15;" vertex="1" parent="1">
          <mxGeometry x="1378.34" y="370" width="170" height="100" as="geometry" />
        </mxCell>
        <mxCell id="FtxeGz9yoECI1jrde65M-36" value="&lt;font face=&quot;Times New Roman&quot;&gt;&lt;span style=&quot;font-size: 30px;&quot;&gt;Visa&lt;/span&gt;&lt;/font&gt;" style="ellipse;whiteSpace=wrap;html=1;rotation=-10;" vertex="1" parent="1">
          <mxGeometry x="1700" y="330" width="170" height="100" as="geometry" />
        </mxCell>
        <mxCell id="FtxeGz9yoECI1jrde65M-38" value="&lt;font face=&quot;Times New Roman&quot;&gt;&lt;span style=&quot;font-size: 30px;&quot;&gt;UCB&lt;/span&gt;&lt;/font&gt;" style="ellipse;whiteSpace=wrap;html=1;rotation=0;" vertex="1" parent="1">
          <mxGeometry x="1710" y="460" width="170" height="100" as="geometry" />
        </mxCell>
        <mxCell id="FtxeGz9yoECI1jrde65M-39" value="&lt;font face=&quot;Times New Roman&quot; style=&quot;font-size: 40px;&quot;&gt;Go to profile&lt;br&gt;&lt;/font&gt;" style="ellipse;whiteSpace=wrap;html=1;" vertex="1" parent="1">
          <mxGeometry x="723.75" y="550" width="242.5" height="110" as="geometry" />
        </mxCell>
        <mxCell id="FtxeGz9yoECI1jrde65M-40" value="&lt;font face=&quot;Times New Roman&quot; style=&quot;font-size: 40px;&quot;&gt;Take Help&lt;br&gt;&lt;/font&gt;" style="ellipse;whiteSpace=wrap;html=1;" vertex="1" parent="1">
          <mxGeometry x="723.75" y="730" width="242.5" height="110" as="geometry" />
        </mxCell>
        <mxCell id="FtxeGz9yoECI1jrde65M-41" value="&lt;font face=&quot;Times New Roman&quot; style=&quot;font-size: 40px;&quot;&gt;Ask&lt;br&gt;FAQ&lt;br&gt;&lt;/font&gt;" style="ellipse;whiteSpace=wrap;html=1;" vertex="1" parent="1">
          <mxGeometry x="723.75" y="890" width="242.5" height="110" as="geometry" />
        </mxCell>
        <mxCell id="FtxeGz9yoECI1jrde65M-42" value="&lt;font face=&quot;Times New Roman&quot; style=&quot;font-size: 40px;&quot;&gt;Go to Setting&lt;br&gt;&lt;/font&gt;" style="ellipse;whiteSpace=wrap;html=1;" vertex="1" parent="1">
          <mxGeometry x="720" y="1040" width="242.5" height="110" as="geometry" />
        </mxCell>
        <mxCell id="FtxeGz9yoECI1jrde65M-43" value="&lt;font face=&quot;Times New Roman&quot; style=&quot;font-size: 40px;&quot;&gt;Clear&lt;br&gt;Conversation&lt;br&gt;&lt;/font&gt;" style="ellipse;whiteSpace=wrap;html=1;" vertex="1" parent="1">
          <mxGeometry x="690" y="1180" width="276.25" height="120" as="geometry" />
        </mxCell>
        <mxCell id="FtxeGz9yoECI1jrde65M-44" value="&lt;font face=&quot;Times New Roman&quot; style=&quot;font-size: 40px;&quot;&gt;LogOut&lt;br&gt;&lt;/font&gt;" style="ellipse;whiteSpace=wrap;html=1;" vertex="1" parent="1">
          <mxGeometry x="703.13" y="1360" width="276.25" height="120" as="geometry" />
        </mxCell>
        <mxCell id="FtxeGz9yoECI1jrde65M-46" value="&lt;font face=&quot;Times New Roman&quot; style=&quot;font-size: 40px;&quot;&gt;General&lt;br&gt;&lt;/font&gt;" style="ellipse;whiteSpace=wrap;html=1;rotation=-15;" vertex="1" parent="1">
          <mxGeometry x="1040" y="950" width="242.5" height="110" as="geometry" />
        </mxCell>
        <mxCell id="FtxeGz9yoECI1jrde65M-48" value="&lt;font face=&quot;Times New Roman&quot; style=&quot;font-size: 40px;&quot;&gt;Data&lt;br&gt;Control&lt;br&gt;&lt;/font&gt;" style="ellipse;whiteSpace=wrap;html=1;rotation=-15;" vertex="1" parent="1">
          <mxGeometry x="1097.88" y="1070" width="242.5" height="110" as="geometry" />
        </mxCell>
        <mxCell id="FtxeGz9yoECI1jrde65M-49" value="" style="endArrow=none;html=1;rounded=0;" edge="1" parent="1">
          <mxGeometry width="50" height="50" relative="1" as="geometry">
            <mxPoint x="160" y="640" as="sourcePoint" />
            <mxPoint x="160" y="560" as="targetPoint" />
          </mxGeometry>
        </mxCell>
        <mxCell id="FtxeGz9yoECI1jrde65M-50" value="" style="endArrow=classic;html=1;rounded=0;entryX=0;entryY=0.5;entryDx=0;entryDy=0;" edge="1" parent="1" target="FtxeGz9yoECI1jrde65M-10">
          <mxGeometry width="50" height="50" relative="1" as="geometry">
            <mxPoint x="160" y="600" as="sourcePoint" />
            <mxPoint x="440" y="460" as="targetPoint" />
          </mxGeometry>
        </mxCell>
        <mxCell id="FtxeGz9yoECI1jrde65M-51" value="" style="endArrow=classic;html=1;rounded=0;entryX=0;entryY=0.5;entryDx=0;entryDy=0;" edge="1" parent="1" target="FtxeGz9yoECI1jrde65M-19">
          <mxGeometry width="50" height="50" relative="1" as="geometry">
            <mxPoint x="160" y="600" as="sourcePoint" />
            <mxPoint x="745" y="115" as="targetPoint" />
          </mxGeometry>
        </mxCell>
        <mxCell id="FtxeGz9yoECI1jrde65M-52" value="" style="endArrow=classic;html=1;rounded=0;entryX=0;entryY=0.5;entryDx=0;entryDy=0;" edge="1" parent="1" target="FtxeGz9yoECI1jrde65M-20">
          <mxGeometry width="50" height="50" relative="1" as="geometry">
            <mxPoint x="160" y="600" as="sourcePoint" />
            <mxPoint x="755" y="125" as="targetPoint" />
          </mxGeometry>
        </mxCell>
        <mxCell id="FtxeGz9yoECI1jrde65M-53" value="" style="endArrow=classic;html=1;rounded=0;entryX=0;entryY=0.5;entryDx=0;entryDy=0;" edge="1" parent="1" target="FtxeGz9yoECI1jrde65M-39">
          <mxGeometry width="50" height="50" relative="1" as="geometry">
            <mxPoint x="160" y="600" as="sourcePoint" />
            <mxPoint x="738" y="435" as="targetPoint" />
          </mxGeometry>
        </mxCell>
        <mxCell id="FtxeGz9yoECI1jrde65M-54" value="" style="endArrow=classic;html=1;rounded=0;entryX=0;entryY=0.5;entryDx=0;entryDy=0;" edge="1" parent="1" target="FtxeGz9yoECI1jrde65M-40">
          <mxGeometry width="50" height="50" relative="1" as="geometry">
            <mxPoint x="160" y="600" as="sourcePoint" />
            <mxPoint x="748" y="445" as="targetPoint" />
          </mxGeometry>
        </mxCell>
        <mxCell id="FtxeGz9yoECI1jrde65M-55" value="" style="endArrow=classic;html=1;rounded=0;entryX=0;entryY=0.5;entryDx=0;entryDy=0;" edge="1" parent="1" target="FtxeGz9yoECI1jrde65M-41">
          <mxGeometry width="50" height="50" relative="1" as="geometry">
            <mxPoint x="160" y="600" as="sourcePoint" />
            <mxPoint x="758" y="455" as="targetPoint" />
          </mxGeometry>
        </mxCell>
        <mxCell id="FtxeGz9yoECI1jrde65M-56" value="" style="endArrow=classic;html=1;rounded=0;entryX=0;entryY=0.5;entryDx=0;entryDy=0;" edge="1" parent="1" target="FtxeGz9yoECI1jrde65M-42">
          <mxGeometry width="50" height="50" relative="1" as="geometry">
            <mxPoint x="160" y="600" as="sourcePoint" />
            <mxPoint x="768" y="465" as="targetPoint" />
          </mxGeometry>
        </mxCell>
        <mxCell id="FtxeGz9yoECI1jrde65M-57" value="" style="endArrow=classic;html=1;rounded=0;entryX=0;entryY=0.5;entryDx=0;entryDy=0;" edge="1" parent="1" target="FtxeGz9yoECI1jrde65M-43">
          <mxGeometry width="50" height="50" relative="1" as="geometry">
            <mxPoint x="160" y="600" as="sourcePoint" />
            <mxPoint x="778" y="475" as="targetPoint" />
          </mxGeometry>
        </mxCell>
        <mxCell id="FtxeGz9yoECI1jrde65M-58" value="" style="endArrow=classic;html=1;rounded=0;entryX=0;entryY=0.5;entryDx=0;entryDy=0;" edge="1" parent="1" target="FtxeGz9yoECI1jrde65M-44">
          <mxGeometry width="50" height="50" relative="1" as="geometry">
            <mxPoint x="160" y="600" as="sourcePoint" />
            <mxPoint x="788" y="485" as="targetPoint" />
          </mxGeometry>
        </mxCell>
        <mxCell id="FtxeGz9yoECI1jrde65M-59" value="" style="ellipse;whiteSpace=wrap;html=1;aspect=fixed;" vertex="1" parent="1">
          <mxGeometry x="50" y="490" width="70" height="70" as="geometry" />
        </mxCell>
        <mxCell id="FtxeGz9yoECI1jrde65M-60" value="" style="endArrow=none;html=1;rounded=0;" edge="1" parent="1">
          <mxGeometry width="50" height="50" relative="1" as="geometry">
            <mxPoint x="80" y="630" as="sourcePoint" />
            <mxPoint x="80" y="560" as="targetPoint" />
          </mxGeometry>
        </mxCell>
        <mxCell id="FtxeGz9yoECI1jrde65M-61" value="" style="ellipse;whiteSpace=wrap;html=1;aspect=fixed;" vertex="1" parent="1">
          <mxGeometry x="50" y="490" width="70" height="70" as="geometry" />
        </mxCell>
        <mxCell id="FtxeGz9yoECI1jrde65M-62" value="" style="endArrow=none;html=1;rounded=0;" edge="1" parent="1">
          <mxGeometry width="50" height="50" relative="1" as="geometry">
            <mxPoint x="80" y="630" as="sourcePoint" />
            <mxPoint x="80" y="560" as="targetPoint" />
          </mxGeometry>
        </mxCell>
        <mxCell id="FtxeGz9yoECI1jrde65M-63" value="" style="endArrow=none;html=1;rounded=0;" edge="1" parent="1">
          <mxGeometry width="50" height="50" relative="1" as="geometry">
            <mxPoint x="40" y="600" as="sourcePoint" />
            <mxPoint x="120" y="600" as="targetPoint" />
          </mxGeometry>
        </mxCell>
        <mxCell id="FtxeGz9yoECI1jrde65M-64" value="" style="endArrow=none;html=1;rounded=0;" edge="1" parent="1">
          <mxGeometry width="50" height="50" relative="1" as="geometry">
            <mxPoint x="30" y="680" as="sourcePoint" />
            <mxPoint x="80" y="630" as="targetPoint" />
          </mxGeometry>
        </mxCell>
        <mxCell id="FtxeGz9yoECI1jrde65M-80" value="&lt;font face=&quot;Times New Roman&quot; style=&quot;font-size: 30px;&quot;&gt;&amp;lt;in&amp;gt;&lt;/font&gt;" style="edgeStyle=none;html=1;endArrow=open;verticalAlign=bottom;dashed=1;labelBackgroundColor=none;rounded=0;exitX=1;exitY=0.5;exitDx=0;exitDy=0;entryX=0;entryY=0.5;entryDx=0;entryDy=0;" edge="1" parent="1" source="FtxeGz9yoECI1jrde65M-10" target="FtxeGz9yoECI1jrde65M-12">
          <mxGeometry x="-0.1902" y="10" width="160" relative="1" as="geometry">
            <mxPoint x="955" y="170" as="sourcePoint" />
            <mxPoint x="1115" y="170" as="targetPoint" />
            <mxPoint as="offset" />
          </mxGeometry>
        </mxCell>
        <mxCell id="FtxeGz9yoECI1jrde65M-81" value="&lt;font face=&quot;Times New Roman&quot; style=&quot;font-size: 30px;&quot;&gt;&amp;lt;ex&amp;gt;&lt;/font&gt;" style="edgeStyle=none;html=1;startArrow=open;endArrow=none;startSize=12;verticalAlign=bottom;dashed=1;labelBackgroundColor=none;rounded=0;entryX=0;entryY=0.5;entryDx=0;entryDy=0;exitX=1;exitY=0.5;exitDx=0;exitDy=0;" edge="1" parent="1" source="FtxeGz9yoECI1jrde65M-12" target="FtxeGz9yoECI1jrde65M-18">
          <mxGeometry x="-0.1965" y="-47" width="160" relative="1" as="geometry">
            <mxPoint x="1230" as="sourcePoint" />
            <mxPoint x="1390" as="targetPoint" />
            <mxPoint as="offset" />
          </mxGeometry>
        </mxCell>
        <mxCell id="FtxeGz9yoECI1jrde65M-82" value="&lt;font face=&quot;Times New Roman&quot; style=&quot;font-size: 30px;&quot;&gt;&amp;lt;ex&amp;gt;&lt;/font&gt;" style="edgeStyle=none;html=1;startArrow=open;endArrow=none;startSize=12;verticalAlign=bottom;dashed=1;labelBackgroundColor=none;rounded=0;entryX=0;entryY=0.5;entryDx=0;entryDy=0;exitX=0.984;exitY=0.383;exitDx=0;exitDy=0;exitPerimeter=0;" edge="1" parent="1" source="FtxeGz9yoECI1jrde65M-12" target="FtxeGz9yoECI1jrde65M-16">
          <mxGeometry x="0.1261" y="2" width="160" relative="1" as="geometry">
            <mxPoint x="1230" as="sourcePoint" />
            <mxPoint x="1390" as="targetPoint" />
            <mxPoint as="offset" />
          </mxGeometry>
        </mxCell>
        <mxCell id="FtxeGz9yoECI1jrde65M-83" value="&lt;font face=&quot;Times New Roman&quot; style=&quot;font-size: 30px;&quot;&gt;&amp;lt;ex&amp;gt;&lt;/font&gt;" style="edgeStyle=none;html=1;startArrow=open;endArrow=none;startSize=12;verticalAlign=bottom;dashed=1;labelBackgroundColor=none;rounded=0;entryX=0;entryY=0.5;entryDx=0;entryDy=0;exitX=0.937;exitY=0.266;exitDx=0;exitDy=0;exitPerimeter=0;" edge="1" parent="1" source="FtxeGz9yoECI1jrde65M-12" target="FtxeGz9yoECI1jrde65M-14">
          <mxGeometry x="-0.0435" y="14" width="160" relative="1" as="geometry">
            <mxPoint x="1230" as="sourcePoint" />
            <mxPoint x="1390" as="targetPoint" />
            <mxPoint as="offset" />
          </mxGeometry>
        </mxCell>
        <mxCell id="FtxeGz9yoECI1jrde65M-85" value="&lt;font face=&quot;Times New Roman&quot; style=&quot;font-size: 30px;&quot;&gt;&amp;lt;ex&amp;gt;&lt;/font&gt;" style="edgeStyle=none;html=1;startArrow=open;endArrow=none;startSize=12;verticalAlign=bottom;dashed=1;labelBackgroundColor=none;rounded=0;exitX=0.93;exitY=0.255;exitDx=0;exitDy=0;exitPerimeter=0;entryX=0;entryY=0.5;entryDx=0;entryDy=0;" edge="1" parent="1" source="FtxeGz9yoECI1jrde65M-20" target="FtxeGz9yoECI1jrde65M-22">
          <mxGeometry width="160" relative="1" as="geometry">
            <mxPoint x="1180" y="440" as="sourcePoint" />
            <mxPoint x="1340" y="440" as="targetPoint" />
          </mxGeometry>
        </mxCell>
        <mxCell id="FtxeGz9yoECI1jrde65M-86" value="&lt;font style=&quot;font-size: 30px;&quot; face=&quot;Times New Roman&quot;&gt;&amp;lt;ex&amp;gt;&lt;/font&gt;" style="edgeStyle=none;html=1;startArrow=open;endArrow=none;startSize=12;verticalAlign=bottom;dashed=1;labelBackgroundColor=none;rounded=0;entryX=0;entryY=0.5;entryDx=0;entryDy=0;" edge="1" parent="1" source="FtxeGz9yoECI1jrde65M-20" target="FtxeGz9yoECI1jrde65M-32">
          <mxGeometry x="0.1162" y="10" width="160" relative="1" as="geometry">
            <mxPoint x="1180" y="440" as="sourcePoint" />
            <mxPoint x="1340" y="440" as="targetPoint" />
            <mxPoint as="offset" />
          </mxGeometry>
        </mxCell>
        <mxCell id="FtxeGz9yoECI1jrde65M-87" value="&lt;font face=&quot;Times New Roman&quot; style=&quot;font-size: 30px;&quot;&gt;&amp;lt;in&amp;gt;&lt;/font&gt;" style="edgeStyle=none;html=1;endArrow=open;verticalAlign=bottom;dashed=1;labelBackgroundColor=none;rounded=0;exitX=1;exitY=0.5;exitDx=0;exitDy=0;entryX=0.003;entryY=0.413;entryDx=0;entryDy=0;entryPerimeter=0;" edge="1" parent="1" source="FtxeGz9yoECI1jrde65M-32" target="FtxeGz9yoECI1jrde65M-34">
          <mxGeometry x="-0.033" y="17" width="160" relative="1" as="geometry">
            <mxPoint x="1380" y="440" as="sourcePoint" />
            <mxPoint x="1540" y="440" as="targetPoint" />
            <mxPoint as="offset" />
          </mxGeometry>
        </mxCell>
        <mxCell id="FtxeGz9yoECI1jrde65M-88" value="&lt;font style=&quot;font-size: 30px;&quot; face=&quot;Times New Roman&quot;&gt;&amp;lt;ex&amp;gt;&lt;/font&gt;" style="edgeStyle=none;html=1;startArrow=open;endArrow=none;startSize=12;verticalAlign=bottom;dashed=1;labelBackgroundColor=none;rounded=0;exitX=0.962;exitY=0.324;exitDx=0;exitDy=0;exitPerimeter=0;entryX=0;entryY=0.5;entryDx=0;entryDy=0;" edge="1" parent="1" source="FtxeGz9yoECI1jrde65M-34" target="FtxeGz9yoECI1jrde65M-36">
          <mxGeometry x="0.1361" y="10" width="160" relative="1" as="geometry">
            <mxPoint x="1570" y="440" as="sourcePoint" />
            <mxPoint x="1730" y="440" as="targetPoint" />
            <mxPoint as="offset" />
          </mxGeometry>
        </mxCell>
        <mxCell id="FtxeGz9yoECI1jrde65M-89" value="&lt;font face=&quot;Times New Roman&quot; style=&quot;font-size: 30px;&quot;&gt;&amp;lt;ex&amp;gt;&lt;/font&gt;" style="edgeStyle=none;html=1;startArrow=open;endArrow=none;startSize=12;verticalAlign=bottom;dashed=1;labelBackgroundColor=none;rounded=0;exitX=0.986;exitY=0.652;exitDx=0;exitDy=0;exitPerimeter=0;entryX=0;entryY=0.5;entryDx=0;entryDy=0;" edge="1" parent="1" source="FtxeGz9yoECI1jrde65M-34" target="FtxeGz9yoECI1jrde65M-38">
          <mxGeometry x="0.0383" y="-42" width="160" relative="1" as="geometry">
            <mxPoint x="1570" y="440" as="sourcePoint" />
            <mxPoint x="1730" y="440" as="targetPoint" />
            <mxPoint as="offset" />
          </mxGeometry>
        </mxCell>
        <mxCell id="FtxeGz9yoECI1jrde65M-90" value="&lt;font style=&quot;font-size: 30px;&quot; face=&quot;Times New Roman&quot;&gt;&amp;lt;ex&amp;gt;&lt;/font&gt;" style="edgeStyle=none;html=1;startArrow=open;endArrow=none;startSize=12;verticalAlign=bottom;dashed=1;labelBackgroundColor=none;rounded=0;exitX=0.96;exitY=0.318;exitDx=0;exitDy=0;exitPerimeter=0;entryX=0;entryY=0.5;entryDx=0;entryDy=0;" edge="1" parent="1" source="FtxeGz9yoECI1jrde65M-42" target="FtxeGz9yoECI1jrde65M-46">
          <mxGeometry x="-0.2985" y="12" width="160" relative="1" as="geometry">
            <mxPoint x="970" y="1060" as="sourcePoint" />
            <mxPoint x="1130" y="1060" as="targetPoint" />
            <mxPoint as="offset" />
          </mxGeometry>
        </mxCell>
        <mxCell id="FtxeGz9yoECI1jrde65M-91" value="&lt;font style=&quot;font-size: 30px;&quot; face=&quot;Times New Roman&quot;&gt;&amp;lt;ex&amp;gt;&lt;/font&gt;" style="edgeStyle=none;html=1;startArrow=open;endArrow=none;startSize=12;verticalAlign=bottom;dashed=1;labelBackgroundColor=none;rounded=0;exitX=1;exitY=0.5;exitDx=0;exitDy=0;entryX=0;entryY=0.5;entryDx=0;entryDy=0;" edge="1" parent="1" source="FtxeGz9yoECI1jrde65M-42" target="FtxeGz9yoECI1jrde65M-48">
          <mxGeometry x="-0.086" y="-40" width="160" relative="1" as="geometry">
            <mxPoint x="970" y="1060" as="sourcePoint" />
            <mxPoint x="1130" y="1060" as="targetPoint" />
            <mxPoint as="offset" />
          </mxGeometry>
        </mxCell>
      </root>
    </mxGraphModel>
  </diagram>
</mxfile>
